<?xml version="1.0" encoding="utf-8"?>
<!-- Generator: Adobe Illustrator 15.1.0, SVG Export Plug-In . SVG Version: 6.00 Build 0)  -->
<!DOCTYPE svg PUBLIC "-//W3C//DTD SVG 1.1//EN" "http://www.w3.org/Graphics/SVG/1.1/DTD/svg11.dtd">
<svg version="1.1" id="Layer_1" xmlns="http://www.w3.org/2000/svg" xmlns:xlink="http://www.w3.org/1999/xlink" x="0px" y="0px"
	 width="596px" height="595.281px" viewBox="0 0 596 595.281" enable-background="new 0 0 596 595.281" xml:space="preserve">
<g id="Layer_2">
	<circle fill="#051C40" cx="300.5" cy="296.781" r="294.5"/>
</g>
<g id="Icon">
	<g>
		<path fill="#FFFFFF" d="M315.158,325.236c-6.896-2.963-13.74-4.601-20.562-4.897c-4.75-0.149-12.786-0.596-24.121-1.327
			c-11.348-0.744-20.265-1.189-26.788-1.326c-6.077-0.148-11.968-0.373-17.672-0.683c-5.705-0.285-10.716-1.028-15.007-2.22
			c-4.452-1.042-8.234-3.002-11.347-5.903c-3.113-2.878-4.663-7.069-4.663-12.563c0-5.332,1.848-9.562,5.556-12.662
			c3.708-3.1,7.255-5.258,10.665-6.449h26.899c20.747,0,38.94-6.672,54.579-20.004c15.639-13.344,23.451-29.64,23.451-48.912
			c0-7.403-1.327-14.969-3.993-22.683c-2.666-7.701-6.747-14.745-12.229-21.12v-1.326h51.579v-21.344h-76.481
			c-6.819-2.071-13.529-3.782-20.128-5.109c-6.598-1.327-13.231-2.009-19.892-2.009c-24.159,0-43.989,6.672-59.467,20.016
			c-15.489,13.345-23.24,30.385-23.24,51.133c0,13.79,3.919,25.906,11.781,36.349c7.851,10.455,18.888,19.012,33.125,25.685v3.336
			c-11.262,4.737-19.669,10.417-25.237,17.003c-5.556,6.598-8.334,13.815-8.334,21.677c0,6.227,1.19,11.447,3.56,15.677
			c2.368,4.229,5.481,7.899,9.338,11.013c3.411,2.666,7.479,4.998,12.229,6.994c4.737,1.997,9.339,3.671,13.778,4.998v3.113
			c-18.38,0.756-33.498,5.48-45.354,14.225c-11.856,8.743-17.784,20.674-17.784,35.804c0,18.678,8.234,32.853,24.679,42.574
			c16.446,9.725,41.273,14.572,74.473,14.572c20.301,0,37.354-1.936,51.144-5.791c13.791-3.857,25.636-9.265,35.568-16.234
			c9.339-6.819,16.296-14.856,20.909-24.121c4.589-9.264,6.896-19.147,6.896-29.677s-1.712-19.347-5.108-26.466
			c-3.41-7.104-8.086-13.479-14.015-19.123C328.316,332.281,322.054,328.201,315.158,325.236z M263.581,246.425
			c-6.896,10.306-16.719,15.452-29.454,15.452c-11.409,0-20.711-5.184-27.903-15.564c-7.193-10.367-10.777-23.786-10.777-40.243
			c0-7.255,0.633-14.336,1.886-21.231s3.36-12.786,6.337-17.673c3.112-5.332,7.155-9.449,12.117-12.339
			c4.96-2.89,10.926-4.341,17.896-4.341c12.736,0,22.633,5.159,29.677,15.452c7.032,10.306,10.566,24.121,10.566,41.459
			C273.923,223.109,270.476,236.119,263.581,246.425z M297.82,429.399c-12.524,8.383-29.688,12.562-51.467,12.562
			c-12.6,0-23.265-1.228-32.021-3.658c-8.743-2.442-15.713-5.594-20.896-9.463c-5.481-3.993-9.339-8.371-11.559-13.121
			c-2.221-4.736-3.336-9.697-3.336-14.895c0-11.559,3.373-20.995,10.119-28.338c6.733-7.342,18.118-12.575,34.13-15.688
			c17.04,0,32.021,0.372,44.905,1.116c12.897,0.756,21.417,1.414,25.572,1.996c7.851,1.923,13.704,5.557,17.573,10.901
			c3.855,5.345,5.779,12.142,5.779,20.449C316.597,408.303,310.347,421.028,297.82,429.399z"/>
		<path fill="#FFFFFF" d="M401.362,207.222v43.468h16.967v-43.468h43.269v-16.68h-43.269v-43.567h-16.967v43.567h-43.27v16.68
			H401.362L401.362,207.222z"/>
	</g>
</g>
</svg>
