<?xml version="1.0" encoding="utf-8"?>
<!-- Generator: Adobe Illustrator 15.1.0, SVG Export Plug-In . SVG Version: 6.00 Build 0)  -->
<!DOCTYPE svg PUBLIC "-//W3C//DTD SVG 1.1//EN" "http://www.w3.org/Graphics/SVG/1.1/DTD/svg11.dtd">
<svg version="1.1" xmlns="http://www.w3.org/2000/svg" xmlns:xlink="http://www.w3.org/1999/xlink" x="0px" y="0px" width="256px"
	 height="256px" viewBox="0 0 256 256" enable-background="new 0 0 256 256" xml:space="preserve">
<g id="Layer_2">
	<circle fill="#FFFFFF" cx="128" cy="128" r="126"/>
</g>
<g id="svg2" sodipodi:docname="skype.svg" sodipodi:version="0.32" inkscape:version="0.47 r22583" inkscape:output_extension="org.inkscape.output.svg.inkscape" xmlns:sodipodi="http://sodipodi.sourceforge.net/DTD/sodipodi-0.dtd" xmlns:cc="http://creativecommons.org/ns#" xmlns:inkscape="http://www.inkscape.org/namespaces/inkscape" xmlns:svg="http://www.w3.org/2000/svg" xmlns:rdf="http://www.w3.org/1999/02/22-rdf-syntax-ns#" xmlns:dc="http://purl.org/dc/elements/1.1/">
	<defs>
		
		
			<inkscape:perspective  id="perspective2915" inkscape:persp3d-origin="128 : 85.333333 : 1" inkscape:vp_x="0 : 128 : 1" inkscape:vp_z="256 : 128 : 1" inkscape:vp_y="0 : 1000 : 0" sodipodi:type="inkscape:persp3d">
			</inkscape:perspective>
	</defs>
	
		<sodipodi:namedview  id="base" inkscape:window-x="0" inkscape:window-y="0" inkscape:window-width="1047" inkscape:pageopacity="0.0" inkscape:pageshadow="2" inkscape:document-units="px" inkscape:window-height="538" inkscape:current-layer="layer1" borderopacity="1.0" inkscape:cy="123.84505" inkscape:cx="-180.97949" bordercolor="#666666" inkscape:zoom="0.49497474" showgrid="false" pagecolor="#ffffff" inkscape:window-maximized="0">
		</sodipodi:namedview>
	<g id="layer1" transform="translate(-373.642,-318.344)" inkscape:groupmode="layer" inkscape:label="Layer 1">
		
			<path id="path24965" sodipodi:cy="87.809601" sodipodi:ry="45.961941" sodipodi:rx="46.467018" sodipodi:cx="87.88327" sodipodi:type="arc" fill="#051C40" d="
			M506.982,404.133c0,25.384-20.804,45.963-46.467,45.963s-46.467-20.579-46.467-45.963c0-25.384,20.804-45.962,46.467-45.962
			S506.982,378.749,506.982,404.133z"/>
		
			<path id="path24965-8" sodipodi:cy="87.809601" sodipodi:ry="45.961941" sodipodi:rx="46.467018" sodipodi:cx="87.88327" sodipodi:type="arc" fill="#051C40" d="
			M581.734,482.42c0,25.384-20.805,45.962-46.467,45.962c-25.664,0-46.468-20.578-46.468-45.962
			c0-25.385,20.804-45.962,46.468-45.962C560.929,436.458,581.734,457.035,581.734,482.42z"/>
		
			<path id="path24989" sodipodi:cy="132.25632" sodipodi:ry="85.357887" sodipodi:rx="76.266518" sodipodi:cx="113.64217" sodipodi:type="arc" fill="#051C40" d="
			M578.703,442.014c0,45.189-35.729,81.822-79.802,81.822c-44.073,0-79.802-36.633-79.802-81.822
			c0-45.189,35.729-81.822,79.802-81.822C542.974,360.192,578.703,396.825,578.703,442.014z"/>
		<path id="path24997" sodipodi:nodetypes="ccccccc" fill="none" stroke="#FFFFFF" stroke-width="23" stroke-linecap="round" d="
			M531.731,410.699c-9.05-9.342-19.685-14.506-32.325-16.163c-11.584-0.575-27.216,4.729-28.285,19.193
			c-0.916,15.696,8.749,21.047,29.295,26.264c17.763,4.64,34.399,7.71,33.335,25.253c-0.377,15.746-15.618,22.789-32.325,22.224
			c-16.549-0.758-27.077-9.137-33.335-17.173"/>
	</g>
</g>
</svg>
